<svg xmlns="http://www.w3.org/2000/svg" xmlns:xlink="http://www.w3.org/1999/xlink" width="300" zoomAndPan="magnify" viewBox="0 0 224.87999 80.249996" height="107" preserveAspectRatio="xMidYMid meet" version="1.0"><defs><clipPath id="fdec728068"><path d="M 0.980469 0 L 223.78125 0 L 223.78125 79.507812 L 0.980469 79.507812 Z M 0.980469 0 " clip-rule="nonzero"/></clipPath><clipPath id="37175b8082"><path d="M 6 18 L 219 18 L 219 62 L 6 62 Z M 6 18 " clip-rule="nonzero"/></clipPath><clipPath id="5f83f5f395"><path d="M 4.648438 49.558594 L 216.765625 10.84375 L 220.25 29.945312 L 8.132812 68.660156 Z M 4.648438 49.558594 " clip-rule="nonzero"/></clipPath><clipPath id="09a096ec06"><path d="M 110.699219 30.203125 C 52.128906 40.894531 5.429688 53.835938 6.390625 59.109375 C 7.351562 64.382812 55.613281 59.992188 114.183594 49.304688 C 172.753906 38.613281 219.453125 25.671875 218.488281 20.398438 C 217.527344 15.125 169.265625 19.511719 110.699219 30.203125 Z M 110.699219 30.203125 " clip-rule="nonzero"/></clipPath></defs><g clip-path="url(#fdec728068)"><path fill="#ffffff" d="M 0.980469 0 L 223.898438 0 L 223.898438 79.507812 L 0.980469 79.507812 Z M 0.980469 0 " fill-opacity="1" fill-rule="nonzero"/><path fill="#ffffff" d="M 0.980469 0 L 223.898438 0 L 223.898438 79.507812 L 0.980469 79.507812 Z M 0.980469 0 " fill-opacity="1" fill-rule="nonzero"/></g><g clip-path="url(#37175b8082)"><g clip-path="url(#5f83f5f395)"><g clip-path="url(#09a096ec06)"><path fill="#effbff" d="M 4.648438 49.558594 L 216.765625 10.84375 L 220.25 29.945312 L 8.132812 68.660156 Z M 4.648438 49.558594 " fill-opacity="1" fill-rule="nonzero"/></g></g></g></svg>